<svg xmlns="http://www.w3.org/2000/svg" viewBox="0 0 159.77 110.67"><defs><style>.cls-1{fill:#cfa72b;stroke:#433426;stroke-miterlimit:10;stroke-width:3px;}</style></defs><g id="Layer_2" data-name="Layer 2"><g id="Layer_1-2" data-name="Layer 1"><path class="cls-1" d="M158.27,63.13a4.82,4.82,0,0,0-4.82-4.82H8.39V5A3.44,3.44,0,0,0,5,1.5h0A3.44,3.44,0,0,0,1.5,5v96.59A3.45,3.45,0,0,0,4.94,105H5a3.45,3.45,0,0,0,3.44-3.45V68l.14,0H151.22v37.65a3.53,3.53,0,0,0,7.05,0V65.35a3.67,3.67,0,0,0-.16-1,5.09,5.09,0,0,0,.16-1.18Z"/><circle class="cls-1" cx="35.84" cy="31.3" r="16.29"/><path class="cls-1" d="M65.44,15h71.33A18.82,18.82,0,0,1,155.6,33.82v9.8a4,4,0,0,1-4,4H65.44a4,4,0,0,1-4-4V19a4,4,0,0,1,4-4Z"/></g></g></svg>