<?xml version="1.0" encoding="utf-8"?>
<!-- Generator: Adobe Illustrator 25.4.1, SVG Export Plug-In . SVG Version: 6.00 Build 0)  -->
<svg version="1.1" id="Layer_1" xmlns="http://www.w3.org/2000/svg" xmlns:xlink="http://www.w3.org/1999/xlink" x="0px" y="0px"
	 viewBox="0 0 1366 768" style="enable-background:new 0 0 1366 768;" xml:space="preserve">
<style type="text/css">
	.st0{fill:#FFFFFF;}
	.st1{fill:#EEEBE8;}
</style>
<rect x="0.5" class="st0" width="1365" height="767.5"/>
<polygon class="st1" points="132,236.5 1,451.1 1,768.5 263,768.5 263,451.1 "/>
<polygon class="st1" points="656,236.5 525,451.1 525,768.5 787,768.5 787,451.1 "/>
<polygon class="st1" points="394,1 263,310.6 263,768.5 525,768.5 525,310.6 "/>
<polygon class="st1" points="918,42.9 787,335.8 787,769 1049,769 1049,335.8 "/>
<polygon class="st1" points="824,189 693,422.5 693,768 955,768 955,422.5 "/>
<polygon class="st1" points="1209,42.9 1049,335.8 1049,769 1369,769 1369,335.8 "/>
<polygon class="st1" points="271,35.9 140,331.6 140,769 402,769 402,331.6 "/>
<polygon class="st1" points="533,236.9 402,451.6 402,769 664,769 664,451.6 "/>
</svg>
